<svg t="1620545733915" class="icon" viewBox="0 0 1024 1024" version="1.1" xmlns="http://www.w3.org/2000/svg"
  p-id="18471" width="200" height="200">
  <path
    d="M644.864 525.824c26.688 11.072 55.808 17.344 86.464 17.344 126.08 0 228.224-104.064 228.224-232.512 0-13.376-1.344-26.432-3.456-39.168L794.176 448l-152.896-28.288-52.352-148.992 174.4-190.08a228.8 228.8 0 0 0-32-2.56c-126.08 0-228.288 104.128-228.288 232.512 0 33.024 6.848 64.384 19.008 92.8-70.464 126.4-176.064 232-217.6 271.04a135.872 135.872 0 0 0-40.64-6.144c-77.824 0-140.928 64.256-140.928 143.552 0 79.232 63.104 143.488 140.928 143.488s140.928-64.256 140.928-143.488c0-19.2-3.776-37.376-10.432-54.08a977.92 977.92 0 0 1 250.56-231.936z m-380.992 362.432a75.648 75.648 0 0 1-74.944-76.288c0-42.176 33.536-76.352 74.944-76.352 41.344 0 74.944 34.176 74.944 76.352a75.712 75.712 0 0 1-74.944 76.288z m13.44-542.656L410.88 485.12l64-65.28-133.504-139.456 32-32.64-179.264-182.528-128 130.432 179.2 182.592 32-32.64z m415.552 210.752s-109.888 30.464-185.344 164.096c-3.008-7.68 202.176 210.56 202.176 210.56a89.344 89.344 0 0 0 128.064 0l51.2-52.096a93.44 93.44 0 0 0 0-130.432l-196.096-192.128z m88.384 338.752a22.336 22.336 0 0 1-32.128 0l-164.608-167.68c-8.896-9.024-8.896-23.68 0-32.768s23.296-9.088 32.192 0l164.544 167.616c8.96 9.088 8.96 23.808 0 32.832z m72.448-73.792a22.336 22.336 0 0 1-32.128 0l-164.608-167.616c-8.896-9.088-8.896-23.68 0-32.768s23.232-9.088 32.192 0l164.544 167.616a23.424 23.424 0 0 1 0 32.768z"
    p-id="18472" fill="#fff"></path>
</svg>