<svg t="1620545931274" class="icon" viewBox="0 0 1024 1024" version="1.1" xmlns="http://www.w3.org/2000/svg"
  p-id="21086" width="200" height="200">
  <path
    d="M764.513935 961.720454H259.59444c-61.990545 0-112.276582-50.249912-112.276582-112.276582V176.181754c0-61.990545 50.249912-112.168207 112.276582-112.168207h504.95562c61.990545 0 112.168207 50.177662 112.168207 112.168207v673.262118c0 62.02667-50.177662 112.276582-112.204332 112.276582z m56.138291-785.5387c0-30.959148-25.179143-56.138291-56.138291-56.138291H259.59444c-30.959148 0-56.138291 25.179143-56.138291 56.138291v673.262118c0 30.959148 25.179143 56.138291 56.138291 56.138291h504.95562c30.959148 0 56.138291-25.179143 56.138291-56.138291V176.181754h-0.036125z m-84.135187 561.093911c-15.569886 0-28.105271-12.535384-28.10527-28.105271 0-15.461511 12.535384-28.033021 28.10527-28.03302a28.033021 28.033021 0 0 1 28.033021 28.03302c-0.036125 15.569886-12.571509 28.105271-28.033021 28.105271z m-28.141395-112.276582H315.696606c-31.031398 0-56.138291-25.070768-56.138291-56.029916V232.320045c0-31.031398 25.070768-56.138291 56.138291-56.138291h392.679038c31.031398 0 56.138291 25.070768 56.138291 56.138291v336.649122c0 30.959148-25.070768 56.029916-56.138291 56.029916z m0-364.646017c0-15.497636-12.535384-28.033021-28.033021-28.033021H343.729627c-15.497636 0-28.033021 12.535384-28.033021 28.033021v280.51083c0 15.569886 12.535384 28.105271 28.033021 28.105271h336.612996c15.497636 0 28.033021-12.535384 28.033021-28.105271V260.353066zM287.591336 737.275665h28.10527v-28.105271a28.033021 28.033021 0 0 1 28.033021-28.03302c15.497636 0 28.033021 12.535384 28.03302 28.03302v28.105271h28.105271a28.033021 28.033021 0 0 1 0 56.066041h-28.105271v28.105271a28.033021 28.033021 0 0 1-28.03302 28.03302c-15.497636 0-28.033021-12.535384-28.033021-28.03302v-28.105271h-28.10527c-15.497636 0-28.033021-12.535384-28.033021-28.03302 0.036125-15.497636 12.571509-28.033021 28.033021-28.033021z m280.58308 56.066041c15.461511 0 28.033021 12.643759 28.033021 28.105271a28.033021 28.033021 0 0 1-28.033021 28.03302c-15.569886 0-28.105271-12.535384-28.10527-28.03302 0-15.497636 12.535384-28.105271 28.10527-28.105271z m0-84.171312a28.033021 28.033021 0 0 1 28.033021-28.03302c15.497636 0 28.033021 12.535384 28.03302 28.03302 0 15.569886-12.535384 28.105271-28.03302 28.105271-15.461511 0-28.033021-12.535384-28.033021-28.105271z m140.201228 84.171312c15.461511 0 28.105271 12.643759 28.10527 28.105271s-12.643759 28.033021-28.10527 28.03302c-15.497636 0-28.033021-12.535384-28.033021-28.03302 0.036125-15.497636 12.571509-28.105271 28.033021-28.105271z"
    fill="#" p-id="21087"></path>
</svg>